# xmcd CD database file
#
# Track frame offsets:
#	150
#	11924
#	35773
#	50174
#	57363
#	78950
#	101763
#	114127
#	134424
#	152360
#	165571
#	185315
#	204937
#	224757
#	245977
#	255377
#
# Disc length: 3602 seconds
#
# Revision: 1
# Processed by: cddbd v1.5.1PL0 Copyright (c) Steve Scherf et al.
# Submitted via: CDex 1.50
#
DISCID=e00e1010
DTITLE=nn - EXOTICA 
DYEAR=2005
DGENRE=New Age
TTITLE0=THE COLOUR OF YOUR DREAMS part one
TTITLE1=THE COLOUR OF YOUR DREAM port two
TTITLE2=THE COLOUR OF YOUR DREAM part three
TTITLE3=THE COLOUR OF YOUR DREAM part four
TTITLE4=AGUA Y TIERRA part one
TTITLE5=AGUA Y TIERRA part two
TTITLE6=AGUA Y TIERRA part three
TTITLE7=L'AMOUR C'EST COMME UN JOUR part one
TTITLE8=L'AMOUR C'EST COMME UN JOUR part two
TTITLE9=L'AMOUR C'EST COMME UN JOUR part tree
TTITLE10=MYSTIC NIGHT TRAIN part one
TTITLE11=MYSTIC NIGHT TRAIN part two
TTITLE12=MYSTIC NIGHT TRAIN part tree
TTITLE13=BOMBAY'S SYNPHONY part one 
TTITLE14=BOMBAY'S SYNPHONY part two 
TTITLE15=BOMBAY'S SYMPHONY part tree
EXTD=YEAR: 2005
EXTT0=
EXTT1=
EXTT2=
EXTT3=
EXTT4=
EXTT5=
EXTT6=
EXTT7=
EXTT8=
EXTT9=
EXTT10=
EXTT11=
EXTT12=
EXTT13=
EXTT14=
EXTT15=
PLAYORDER=
